<mxfile host="app.diagrams.net" modified="2024-06-13T11:40:29.674Z" agent="Mozilla/5.0 (Windows NT 10.0; Win64; x64) AppleWebKit/537.36 (KHTML, like Gecko) Chrome/125.0.0.0 Safari/537.36 Edg/125.0.0.0" version="24.5.4" etag="Y56OTG2jX3k72u1jDhgd" type="github">
  <diagram name="Page-1" id="-nh_xPQQfHSRBBNR71u0">
    <mxGraphModel>
      <root>
        <mxCell id="0" />
        <mxCell id="1" parent="0" />
      </root>
    </mxGraphModel>
  </diagram>
</mxfile>
